<svg width="200" height="200" viewBox="0 0 200 200" fill="none" xmlns="http://www.w3.org/2000/svg">
<g clip-path="url(#clip0_120_4)">
<path d="M126.4 0.455644L15.4014 8.62885C6.45491 9.40217 3.33496 15.2354 3.33496 22.2286V143.547C3.33496 148.993 5.2816 153.653 9.95486 159.88L36.0478 193.706C40.3344 199.152 44.2276 200.319 52.4142 199.932L181.312 192.153C192.212 191.379 195.332 186.319 195.332 177.766V41.2817C195.332 36.8617 193.579 35.5884 188.419 31.8151C188.125 31.6023 187.832 31.389 187.539 31.1752L152.106 6.28888C143.533 0.07565 140.033 -0.711004 126.4 0.455644ZM55.3341 39.0484C44.8076 39.755 42.421 39.915 36.4411 35.0684L21.2413 23.0153C19.6947 21.4553 20.4747 19.5087 24.3613 19.122L131.073 11.3488C140.026 10.5688 144.699 13.6821 148.206 16.4021L166.512 29.6285C167.292 30.0152 169.232 32.3418 166.899 32.3418L56.6941 38.955L55.3341 39.0484ZM43.061 176.599V60.7347C43.061 55.6748 44.6143 53.3415 49.2876 52.9481L175.852 45.5616C180.145 45.1749 182.092 47.8949 182.092 52.9481V168.04C182.092 173.1 181.312 177.379 174.292 177.766L53.1808 184.766C46.1743 185.153 43.061 182.826 43.061 176.599ZM162.626 66.9479C163.399 70.4479 162.626 73.9478 159.112 74.3478L153.273 75.5011V161.046C148.206 163.766 143.539 165.32 139.646 165.32C133.413 165.32 131.846 163.373 127.18 157.546L89.0069 97.6674V155.6L101.087 158.326C101.087 158.326 101.087 165.326 91.3402 165.326L64.474 166.88C63.7007 165.32 64.474 161.433 67.2073 160.66L74.2072 158.72V82.121L64.474 81.3344C63.7007 77.8344 65.6406 72.7812 71.1005 72.3945L99.9201 70.4479L139.646 131.114V77.4477L129.513 76.2878C128.74 72.0012 131.846 68.8946 135.746 68.5079L162.626 66.9479Z" fill="white"/>
</g>
<defs>
<clipPath id="clip0_120_4">
<rect width="200" height="200" fill="white"/>
</clipPath>
</defs>
</svg>
